<?xml version="1.0" standalone="no"?>
<!DOCTYPE svg PUBLIC "-//W3C//DTD SVG 20010904//EN"
 "http://www.w3.org/TR/2001/REC-SVG-20010904/DTD/svg10.dtd">
<svg version="1.0" xmlns="http://www.w3.org/2000/svg"
 width="700.000000pt" height="700.000000pt" viewBox="0 0 700.000000 700.000000"
 preserveAspectRatio="xMidYMid meet">
<metadata>
Created by potrace 1.14, written by Peter Selinger 2001-2017
</metadata>
<g transform="translate(0.000000,700.000000) scale(0.100000,-0.100000)"
fill="#000000" stroke="none">
<path d="M3599 6340 c-27 -3 -64 -18 -94 -38 -27 -17 -56 -32 -64 -32 -9 -1
-113 -3 -231 -5 -118 -2 -228 -6 -245 -8 -16 -3 -57 -8 -90 -12 -59 -7 -216
-30 -265 -40 -105 -20 -146 -30 -224 -52 -49 -14 -105 -32 -125 -40 -20 -7
-45 -17 -56 -22 -72 -29 -245 -120 -316 -168 -390 -258 -669 -641 -794 -1088
-10 -33 -19 -73 -22 -90 -2 -16 -6 -36 -9 -44 -10 -31 -19 -164 -18 -286 2
-192 38 -354 120 -532 24 -52 32 -62 49 -57 15 4 17 3 6 -4 -12 -8 -9 -19 17
-60 45 -69 62 -82 116 -87 65 -7 97 -26 130 -76 46 -69 33 -112 -94 -314 -79
-125 -145 -250 -155 -295 -30 -129 20 -209 157 -251 34 -11 70 -27 80 -36 26
-23 25 -117 -2 -161 -42 -69 -32 -152 26 -210 39 -39 39 -40 19 -78 -18 -35
-19 -120 -2 -154 9 -18 24 -26 55 -32 54 -9 56 -11 76 -51 15 -34 21 -67 31
-202 17 -229 104 -317 313 -316 43 1 91 3 107 6 49 8 87 14 130 20 60 9 179
35 278 61 l87 23 14 -22 c8 -12 18 -42 22 -67 4 -25 8 -47 9 -50 33 -121 25
-324 -20 -482 -30 -106 -30 -108 -2 -103 12 2 68 6 124 10 56 3 112 8 125 10
13 2 61 6 108 9 47 4 96 8 110 10 14 3 66 7 115 11 50 3 108 8 130 10 107 10
184 17 220 20 22 2 99 9 170 16 72 6 148 13 170 14 22 2 72 6 110 9 78 7 130
12 255 22 47 4 99 8 115 10 17 1 38 3 47 3 16 1 16 5 2 51 -40 133 -116 327
-135 343 -12 9 -16 17 -10 17 18 0 129 56 201 102 188 118 511 416 681 628
403 501 671 1110 716 1627 12 135 5 469 -11 549 -2 11 -7 45 -10 76 -3 30 -11
79 -16 109 -6 30 -13 66 -15 81 -5 26 -31 144 -39 179 -23 92 -81 266 -103
309 -7 14 -13 29 -13 33 0 5 -23 56 -52 115 -183 377 -461 664 -818 846 -168
86 -418 170 -570 191 -24 4 -47 8 -50 10 -3 2 -32 6 -65 10 -33 4 -73 8 -90
10 -118 16 -342 23 -416 15z m592 -2577 c13 -16 12 -17 -3 -4 -17 13 -22 21
-14 21 2 0 10 -8 17 -17z m-1896 -61 c-3 -3 -11 0 -18 7 -9 10 -8 11 6 5 10
-3 15 -9 12 -12z m120 -50 c-3 -3 -11 0 -18 7 -9 10 -8 11 6 5 10 -3 15 -9 12
-12z m110 -50 c-3 -3 -11 0 -18 7 -9 10 -8 11 6 5 10 -3 15 -9 12 -12z m1783
-17 c-3 -3 -9 2 -12 12 -6 14 -5 15 5 6 7 -7 10 -15 7 -18z m-1623 -63 c-3 -3
-11 0 -18 7 -9 10 -8 11 6 5 10 -3 15 -9 12 -12z m60 -30 c-3 -3 -11 0 -18 7
-9 10 -8 11 6 5 10 -3 15 -9 12 -12z m119 -71 c-2 -3 -12 3 -22 13 -16 17 -16
18 5 5 12 -7 20 -15 17 -18z m116 -67 c0 -2 -9 0 -20 6 -11 6 -20 13 -20 16 0
2 9 0 20 -6 11 -6 20 -13 20 -16z m51 -31 c13 -16 12 -17 -3 -4 -17 13 -22 21
-14 21 2 0 10 -8 17 -17z m65 -44 c3 -6 -5 -3 -20 6 -14 10 -26 19 -26 22 0 7
39 -17 46 -28z m99 -69 c10 -11 16 -20 13 -20 -3 0 -13 9 -23 20 -10 11 -16
20 -13 20 3 0 13 -9 23 -20z m116 -87 c13 -16 12 -17 -3 -4 -10 7 -18 15 -18
17 0 8 8 3 21 -13z m100 -80 c13 -16 12 -17 -3 -4 -17 13 -22 21 -14 21 2 0
10 -8 17 -17z m240 -230 c13 -16 12 -17 -3 -4 -17 13 -22 21 -14 21 2 0 10 -8
17 -17z m74 -83 c10 -11 16 -20 13 -20 -3 0 -13 9 -23 20 -10 11 -16 20 -13
20 3 0 13 -9 23 -20z m292 -72 c-3 -7 -5 -2 -5 12 0 14 2 19 5 13 2 -7 2 -19
0 -25z m280 0 c-3 -8 -6 -5 -6 6 -1 11 2 17 5 13 3 -3 4 -12 1 -19z m-506 -15
c13 -16 12 -17 -3 -4 -17 13 -22 21 -14 21 2 0 10 -8 17 -17z m27 -48 c-3 -3
-9 2 -12 12 -6 14 -5 15 5 6 7 -7 10 -15 7 -18z m22 -35 c6 -11 8 -20 6 -20
-3 0 -10 9 -16 20 -6 11 -8 20 -6 20 3 0 10 -9 16 -20z m150 -8 c0 -5 -7 -17
-15 -28 -14 -18 -14 -17 -4 9 12 27 19 34 19 19z m-133 -44 c-3 -8 -6 -5 -6 6
-1 11 2 17 5 13 3 -3 4 -12 1 -19z m10 -40 c-3 -8 -6 -5 -6 6 -1 11 2 17 5 13
3 -3 4 -12 1 -19z m73 -1 c0 -2 -10 -12 -22 -23 l-23 -19 19 23 c18 21 26 27
26 19z m271 -50 c-10 -9 -11 -8 -5 6 3 10 9 15 12 12 3 -3 0 -11 -7 -18z m-23
-62 c-6 -14 -13 -23 -15 -21 -5 5 15 46 22 46 3 0 -1 -11 -7 -25z m-35 -80
c-3 -9 -8 -14 -10 -11 -3 3 -2 9 2 15 9 16 15 13 8 -4z m-60 -120 c-3 -9 -8
-14 -10 -11 -3 3 -2 9 2 15 9 16 15 13 8 -4z m-50 -90 c-3 -9 -8 -14 -10 -11
-3 3 -2 9 2 15 9 16 15 13 8 -4z m-113 -185 c-12 -16 -24 -30 -26 -30 -3 0 4
14 16 30 12 17 24 30 26 30 3 0 -4 -13 -16 -30z m-40 -64 c0 -2 -8 -10 -17
-17 -16 -13 -17 -12 -4 4 13 16 21 21 21 13z m-30 -39 c0 -2 -10 -12 -22 -23
l-23 -19 19 23 c18 21 26 27 26 19z m-40 -50 c0 -2 -10 -12 -22 -23 l-23 -19
19 23 c18 21 26 27 26 19z m-40 -51 c0 -2 -8 -10 -17 -17 -16 -13 -17 -12 -4
4 13 16 21 21 21 13z m-40 -49 c0 -2 -10 -12 -22 -23 l-23 -19 19 23 c18 21
26 27 26 19z m-184 -186 c-24 -26 -13 -41 29 -41 19 0 36 -4 39 -8 6 -10 -91
1 -101 11 -3 4 4 18 17 32 27 29 41 34 16 6z m671 -7 c-3 -3 -12 -4 -19 -1 -8
3 -5 6 6 6 11 1 17 -2 13 -5z"/>
</g>
</svg>
